<svg width="51" height="51" viewBox="0 0 51 51" fill="none" xmlns="http://www.w3.org/2000/svg">
<g clip-path="url(#clip0)">
<path d="M46.5858 49.6631H4.41411C2.8216 49.6631 1.39401 48.8405 0.595409 47.4627C-0.186847 46.1129 -0.198805 44.5209 0.562524 43.0944L21.6486 3.59579C22.4036 2.18135 23.8435 1.33691 25.4999 1.33691C27.1565 1.33691 28.5963 2.18135 29.3514 3.59579L50.4374 43.0943C51.1989 44.5207 51.1868 46.113 50.4045 47.4627C49.606 48.8405 48.1785 49.6631 46.5858 49.6631Z" fill="#FF4C04"/>
<path d="M50.4374 43.0943L29.3515 3.59579C28.5963 2.18135 27.1566 1.33691 25.5 1.33691V49.6631H46.5859C48.1785 49.6631 49.6061 48.8405 50.4045 47.4627C51.1868 46.113 51.1989 44.5207 50.4374 43.0943Z" fill="#E10000"/>
<path d="M25.5002 43.1878C23.3023 43.1878 21.5142 41.3997 21.5142 39.2018C21.5142 37.0039 23.3023 35.2158 25.5002 35.2158C27.6981 35.2158 29.4862 37.0039 29.4862 39.2018C29.4862 41.3997 27.6981 43.1878 25.5002 43.1878Z" fill="#FFF3F3"/>
<path d="M25.5003 31.2297C23.3023 31.2297 21.5142 29.4416 21.5142 27.2437V18.624C21.5142 16.4261 23.3023 14.6379 25.5002 14.6379C27.6981 14.6379 29.4862 16.4261 29.4862 18.624V27.2437C29.4862 29.4416 27.6982 31.2297 25.5003 31.2297Z" fill="#FFF3F3"/>
<path d="M25.5001 14.6379H25.5V31.2297H25.5002C27.6981 31.2297 29.4861 29.4416 29.4861 27.2437V18.624C29.4861 16.4262 27.698 14.6379 25.5001 14.6379Z" fill="#DAD0CB"/>
<path d="M25.5001 35.2158H25.5V43.1878H25.5001C27.698 43.1878 29.4861 41.3997 29.4861 39.2018C29.4861 37.0039 27.698 35.2158 25.5001 35.2158Z" fill="#DAD0CB"/>
</g>
<defs>
<clipPath id="clip0">
<rect width="51" height="51" fill="white"/>
</clipPath>
</defs>
</svg>
