<svg width="55" height="55" viewBox="0 0 55 55" fill="none" xmlns="http://www.w3.org/2000/svg">
<path d="M27.5 55C12.3363 55 0 42.6637 0 27.5C0 12.3363 12.3363 0 27.5 0C42.6637 0 55 12.3363 55 27.5C55 42.6637 42.6637 55 27.5 55Z" fill="#4CAF50"/>
<path d="M23.4259 39.7222C22.3462 39.7222 21.3114 39.2944 20.5455 38.5285L12.3974 30.3803C10.8044 28.7874 10.8044 26.2126 12.3974 24.6196C13.9903 23.0266 16.5651 23.0266 18.1581 24.6196L23.2262 29.6878L34.6174 16.667C36.1003 14.9803 38.6711 14.8011 40.3659 16.2841C42.0607 17.767 42.2318 20.3378 40.7488 22.0326L26.4896 38.3289C25.7481 39.1803 24.6888 39.6815 23.5603 39.7181L23.4259 39.7222Z" fill="white"/>
<path d="M27.5 0C12.3363 0 0 12.3363 0 27.5C0 42.6637 12.3363 55 27.5 55V37.18L26.4896 38.333C25.7482 39.1804 24.6889 39.6815 23.5604 39.7181L23.4259 39.7222C22.3463 39.7222 21.3115 39.2944 20.5456 38.5285L12.3974 30.3804C10.8044 28.7874 10.8044 26.2126 12.3974 24.6196C13.1919 23.8252 14.2348 23.4259 15.2778 23.4259C16.3207 23.4259 17.3637 23.8252 18.1581 24.6196L23.2263 29.6878L27.5 24.803V0Z" fill="#429846"/>
<path d="M15.2777 23.4259C14.2348 23.4259 13.1918 23.8252 12.3974 24.6196C10.8044 26.2126 10.8044 28.7874 12.3974 30.3803L20.5455 38.5285C21.3114 39.2944 22.3462 39.7222 23.4259 39.7222L23.5603 39.7181C24.6888 39.6815 25.7481 39.1763 26.4896 38.3289L27.5 37.1759V24.8029L23.2262 29.6878L18.1581 24.6196C17.3637 23.8252 16.3207 23.4259 15.2777 23.4259Z" fill="#DEDEDE"/>
</svg>
